<?xml version="1.0" standalone="no"?>
<!DOCTYPE svg PUBLIC "-//W3C//DTD SVG 20010904//EN"
 "http://www.w3.org/TR/2001/REC-SVG-20010904/DTD/svg10.dtd">
<svg version="1.0" xmlns="http://www.w3.org/2000/svg"
 width="500.000000pt" height="500.000000pt" viewBox="0 0 500.000000 500.000000"
 preserveAspectRatio="xMidYMid meet">

<g transform="translate(0.000000,500.000000) scale(0.100000,-0.100000)"
fill="#000000" stroke="none">
<path d="M2241 3924 c-175 -29 -388 -116 -553 -226 -128 -85 -304 -263 -392
-396 -375 -565 -309 -1317 157 -1799 213 -221 470 -362 766 -423 140 -28 421
-28 559 0 113 23 207 53 207 66 0 6 -52 80 -115 167 l-115 157 -80 -8 c-296
-27 -512 16 -720 142 -221 134 -389 352 -459 597 -170 592 155 1179 739 1336
91 24 117 27 280 27 204 1 285 -14 445 -83 413 -178 651 -592 610 -1060 -23
-274 -112 -472 -296 -659 l-101 -103 114 -137 c62 -75 118 -139 124 -141 6 -2
60 46 119 105 204 207 329 443 391 738 31 144 31 408 0 552 -63 300 -186 530
-401 745 -172 173 -339 276 -572 354 -57 19 -146 41 -198 50 -119 19 -392 18
-509 -1z"/>
<path d="M2340 3125 c-127 -35 -254 -117 -340 -220 -54 -65 -115 -194 -131
-272 -18 -97 -7 -263 23 -345 70 -187 207 -324 396 -396 60 -24 81 -26 207
-27 121 0 149 3 206 23 187 64 335 210 407 400 24 60 26 81 27 207 0 121 -3
149 -23 206 -64 187 -211 336 -400 407 -86 32 -283 41 -372 17z m284 -403 c83
-45 129 -123 129 -222 0 -100 -45 -176 -133 -224 -75 -41 -165 -41 -240 0 -88
48 -133 124 -133 224 0 95 42 171 120 217 84 49 171 51 257 5z"/>
</g>
</svg>
